# xmcd CD database file
#
# Track frame offsets:
#	150
#	13260
#	23915
#	43667
#	61172
#	77075
#	99647
#	108995
#	122325
#	133850
#	149302
#
# Disc length: 2066 seconds
#
# Revision: 0
# Processed by: cddbd v1.5.1PL2 Copyright (c) Steve Scherf et al.
# Submitted via: CDex 1.51
#
DISCID=9008100b
DTITLE=Mason Proffit - Wanted
DYEAR=1900
DGENRE=Country
TTITLE0=Voice of Change
TTITLE1=A Rectangle Picture
TTITLE2=You Finally Found Your Love
TTITLE3=Sweet Lady Love
TTITLE4=Stewball
TTITLE5=Two Hangmen
TTITLE6=Buffalo
TTITLE7=Walk On Down The Road
TTITLE8=Its All right
TTITLE9=Till The Sun Goes Down
TTITLE10=Johnnys Tune
EXTD=
EXTT0=
EXTT1=
EXTT2=
EXTT3=
EXTT4=
EXTT5=
EXTT6=
EXTT7=
EXTT8=
EXTT9=
EXTT10=
PLAYORDER=
